<svg width="25" height="24" viewBox="0 0 25 24" fill="none" xmlns="http://www.w3.org/2000/svg">
<g clip-path="url(#clip0_115_2676)">
<path d="M10.394 10.5135C10.6985 10.293 10.844 9.92701 10.844 9.42151C10.8544 9.1834 10.8044 8.94652 10.6985 8.73301C10.6046 8.55826 10.4631 8.41368 10.2905 8.31601C10.1116 8.20941 9.91408 8.13765 9.70847 8.10451C9.48443 8.06254 9.25691 8.04195 9.02897 8.04301H6.55847V10.8465H9.22997C9.69997 10.8505 10.089 10.7395 10.394 10.5135ZM10.811 13.0455C10.465 12.7835 10.0055 12.6525 9.43247 12.6525H6.55847V15.957H9.37547C9.63647 15.957 9.88347 15.932 10.1165 15.882C10.466 15.807 10.562 15.75 10.7405 15.6285C10.9205 15.5115 11.064 15.352 11.171 15.15C11.3315 14.847 11.33 14.6865 11.33 14.3715C11.33 13.7545 11.158 13.3125 10.811 13.0455Z" fill="black"/>
<path d="M22.6699 0H3.16992C1.93242 0 0.919922 1.0125 0.919922 2.25V21.75C0.919922 22.9875 1.93242 24 3.16992 24H22.6699C23.9074 24 24.9199 22.9875 24.9199 21.75V2.25C24.9199 1.0125 23.9074 0 22.6699 0ZM16.6519 6.3135H21.5134V7.5H16.6519V6.3135ZM13.6144 16.0875C13.3891 16.5196 13.0648 16.8922 12.6679 17.175C12.2545 17.4631 11.7927 17.6745 11.3044 17.799C10.7936 17.9347 10.267 18.0023 9.73842 18H3.92142V6.0045H9.57492C10.1449 6.0045 10.6669 6.0545 11.1409 6.1545C11.6099 6.2545 12.0129 6.42 12.3499 6.651C12.6839 6.881 12.9449 7.1855 13.1329 7.5645C13.3159 7.9395 13.4089 8.4135 13.4089 8.9715C13.4089 9.5755 13.2714 10.0785 12.9964 10.4805C12.5839 11.0835 12.3169 11.211 11.7724 11.469C12.5134 11.6805 13.0564 12.0555 13.4179 12.585C13.7819 13.119 13.9634 13.761 13.9624 14.511C13.9664 15.125 13.8509 15.65 13.6159 16.086L13.6144 16.0875ZM23.4064 14.232H17.1394C17.1394 14.916 17.3734 15.5685 17.7304 15.9195C18.0874 16.2675 18.6014 16.4425 19.2724 16.4445C19.7534 16.4445 20.1689 16.3225 20.5189 16.0785C20.8649 15.8345 21.0774 15.5785 21.1564 15.3105H23.2564C22.9214 16.3555 22.4059 17.1025 21.7099 17.5515C21.0214 18.0015 20.1769 18.2265 19.1974 18.2265C18.5144 18.2255 17.8974 18.116 17.3464 17.898C16.8171 17.6927 16.3389 17.3743 15.9454 16.965C15.5592 16.5446 15.2595 16.0522 15.0634 15.516C14.8516 14.922 14.7455 14.2956 14.7499 13.665C14.7499 13.015 14.8564 12.4085 15.0694 11.8455C15.2699 11.305 15.5788 10.8111 15.977 10.3943C16.3753 9.97742 16.8546 9.64639 17.3854 9.4215C17.9578 9.18097 18.5737 9.06146 19.1944 9.0705C19.9304 9.0695 20.5739 9.213 21.1249 9.501C21.6729 9.787 22.1244 10.1715 22.4794 10.6545C23.0119 11.379 23.0839 11.6865 23.2429 12.3045C23.3959 12.9135 23.4504 13.557 23.4064 14.232Z" fill="black"/>
<path d="M19.121 10.8704C18.74 10.8704 18.4245 10.9359 18.1745 11.0669C17.7995 11.2634 17.7245 11.3579 17.57 11.5454C17.4213 11.725 17.3124 11.9341 17.2505 12.1589C17.1928 12.3447 17.1565 12.5364 17.1425 12.7304H21.0245C20.969 12.1214 20.7575 11.6714 20.4755 11.3564C20.1845 11.0369 19.7075 10.8689 19.121 10.8689V10.8704Z" fill="black"/>
</g>
<defs>
<clipPath id="clip0_115_2676">
<rect width="24" height="24" fill="white" transform="translate(0.919922)"/>
</clipPath>
</defs>
</svg>
