<svg width="25" height="24" viewBox="0 0 25 24" fill="none" xmlns="http://www.w3.org/2000/svg">
<g clip-path="url(#clip0_115_2678)">
<path d="M12.9199 0.796875C19.1074 0.796875 24.1137 5.80313 24.1137 11.9813C24.1137 18.1594 19.1074 23.175 12.9199 23.175C6.73245 23.175 1.7262 18.1688 1.7262 11.9906C1.7262 5.8125 6.73245 0.796875 12.9199 0.796875Z" fill="#E74D89"/>
<path d="M12.9199 23.9719C6.30117 23.9719 0.919922 18.6 0.919922 11.9906C0.919922 5.37188 6.30117 0 12.9199 0C19.5387 0 24.9199 5.37188 24.9199 11.9813C24.9199 18.5906 19.5387 23.9719 12.9199 23.9719ZM23.0355 13.6219C22.6887 13.5094 19.8668 12.675 16.6512 13.1813C17.9918 16.8563 18.5355 19.8562 18.6387 20.475C20.9449 18.9281 22.5855 16.4719 23.0355 13.6219ZM16.923 21.4219C16.773 20.5219 16.173 17.3906 14.7387 13.6594C14.7199 13.6687 14.6918 13.6781 14.673 13.6781C8.88867 15.6937 6.8168 19.6969 6.6293 20.0719C8.36367 21.4219 10.548 22.2281 12.9199 22.2281C14.3355 22.2375 15.6949 21.9469 16.923 21.4219ZM5.30742 18.8438C5.5418 18.45 8.3543 13.8 13.6418 12.0844C13.773 12.0375 13.9137 12 14.0449 11.9625C13.7918 11.3812 13.5105 10.8 13.2105 10.2281C8.0918 11.7562 3.12305 11.6906 2.67305 11.6812C2.67305 11.7844 2.66367 11.8875 2.66367 11.9906C2.67305 14.625 3.6668 17.025 5.30742 18.8438ZM2.88867 9.9C3.34805 9.90938 7.5668 9.92813 12.3668 8.65313C10.6699 5.63438 8.83242 3.10313 8.56992 2.7375C5.6918 4.0875 3.5543 6.73125 2.88867 9.9ZM10.5199 2.04375C10.8012 2.41875 12.6668 4.95 14.3449 8.03437C17.9918 6.66562 19.5293 4.60313 19.7168 4.34062C17.9074 2.7375 15.5262 1.7625 12.9199 1.7625C12.0949 1.7625 11.2887 1.86562 10.5199 2.04375ZM20.8512 5.52188C20.6355 5.8125 18.9199 8.01562 15.1324 9.5625C15.3668 10.05 15.6012 10.5469 15.8168 11.0438C15.8918 11.2219 15.9668 11.4 16.0418 11.5688C19.4543 11.1375 22.8387 11.8313 23.1762 11.8969C23.148 9.4875 22.2855 7.26562 20.8512 5.52188Z" fill="#B2215A"/>
</g>
<defs>
<clipPath id="clip0_115_2678">
<rect width="24" height="24" fill="white" transform="translate(0.919922)"/>
</clipPath>
</defs>
</svg>
