<svg width="32" height="24" viewBox="0 0 32 24" fill="none" xmlns="http://www.w3.org/2000/svg">
<g clip-path="url(#clip0_115_2668)">
<path d="M7.31795 23.8819V11.5822L3.50345 8.09254L0.0828857 6.15601V21.7114C0.0828857 22.9124 1.05594 23.8819 2.25346 23.8819H7.31795Z" fill="#4285F4"/>
<path d="M24.682 23.8818H29.7465C30.9476 23.8818 31.9171 22.9086 31.9171 21.7112V6.15601L28.0428 8.37408L24.682 11.5821V23.8818Z" fill="#34A853"/>
<path d="M7.31787 11.5823L6.79883 6.77643L7.31787 2.17676L15.9999 8.68834L24.6819 2.17676L25.2625 6.52809L24.6819 11.5823L15.9999 18.0939L7.31787 11.5823Z" fill="#EA4335"/>
<path d="M24.682 2.17662V11.5821L31.9171 6.1559V3.26185C31.9171 0.577703 28.853 -0.952453 26.708 0.657288L24.682 2.17662Z" fill="#FBBC04"/>
<path d="M0.0828857 6.15596L3.41043 8.65171L7.31795 11.5822V2.17668L5.292 0.657345C3.1432 -0.95252 0.0828857 0.577759 0.0828857 3.26178V6.15596Z" fill="#C5221F"/>
</g>
<defs>
<clipPath id="clip0_115_2668">
<rect width="31.84" height="24" fill="white" transform="translate(0.0799561)"/>
</clipPath>
</defs>
</svg>
