<svg width="25" height="24" viewBox="0 0 25 24" fill="none" xmlns="http://www.w3.org/2000/svg">
<g clip-path="url(#clip0_115_2674)">
<path d="M20.529 20.4495H16.973V14.8804C16.973 13.5525 16.9493 11.8429 15.1235 11.8429C13.2714 11.8429 12.988 13.2899 12.988 14.7838V20.4491H9.43202V8.99697H12.8457V10.562H12.8936C13.2352 9.97789 13.7289 9.49736 14.322 9.17158C14.9152 8.84581 15.5856 8.687 16.2618 8.71206C19.866 8.71206 20.5305 11.0828 20.5305 14.167L20.529 20.4495ZM5.41952 7.43162C4.2798 7.43181 3.35571 6.508 3.35552 5.36828C3.35533 4.22856 4.27905 3.30447 5.41877 3.30428C6.55849 3.304 7.48258 4.22781 7.48277 5.36753C7.48287 5.91484 7.26555 6.43978 6.87862 6.82687C6.49169 7.21396 5.96684 7.4315 5.41952 7.43162ZM7.19758 20.4496H3.6378V8.99697H7.19749L7.19758 20.4496ZM22.3018 0.00174674H1.85093C0.884364 -0.00912826 0.0917075 0.765153 0.079895 1.73172V22.2679C0.0913325 23.235 0.883895 24.01 1.85083 23.9999H22.3018C23.2708 24.0119 24.0665 23.2368 24.0799 22.2679V1.73012C24.0661 0.761684 23.2704 -0.0125033 22.3018 0.00015299" fill="#0A66C2"/>
</g>
<defs>
<clipPath id="clip0_115_2674">
<rect width="24" height="24" fill="white" transform="translate(0.0800171)"/>
</clipPath>
</defs>
</svg>
